<svg xmlns="http://www.w3.org/2000/svg" xmlns:xlink="http://www.w3.org/1999/xlink" width="243" zoomAndPan="magnify" viewBox="0 0 182.25 80.249996" height="107" preserveAspectRatio="xMidYMid meet" version="1.0"><defs><g/><clipPath id="5cd1de9d65"><path d="M 6 44 L 40 44 L 40 79.507812 L 6 79.507812 Z M 6 44 " clip-rule="nonzero"/></clipPath><clipPath id="34205a3803"><path d="M 50 44 L 76 44 L 76 79.507812 L 50 79.507812 Z M 50 44 " clip-rule="nonzero"/></clipPath><clipPath id="7289628341"><path d="M 86 44 L 122 44 L 122 79.507812 L 86 79.507812 Z M 86 44 " clip-rule="nonzero"/></clipPath><clipPath id="18c05d69c6"><path d="M 131 44 L 168 44 L 168 79.507812 L 131 79.507812 Z M 131 44 " clip-rule="nonzero"/></clipPath><clipPath id="34b014a4f6"><path d="M 13 44 L 47 44 L 47 79.507812 L 13 79.507812 Z M 13 44 " clip-rule="nonzero"/></clipPath><clipPath id="dbaefee44e"><path d="M 57 44 L 83 44 L 83 79.507812 L 57 79.507812 Z M 57 44 " clip-rule="nonzero"/></clipPath><clipPath id="f9891e018c"><path d="M 93 44 L 129 44 L 129 79.507812 L 93 79.507812 Z M 93 44 " clip-rule="nonzero"/></clipPath><clipPath id="a4ee7b2476"><path d="M 138 44 L 175 44 L 175 79.507812 L 138 79.507812 Z M 138 44 " clip-rule="nonzero"/></clipPath><clipPath id="2964a81290"><path d="M 138.015625 49.609375 L 161.867188 49.609375 L 161.867188 73.460938 L 138.015625 73.460938 Z M 138.015625 49.609375 " clip-rule="nonzero"/></clipPath></defs><g fill="#f6b900" fill-opacity="1"><g transform="translate(7.314627, 38.492763)"><g><path d="M 22.390625 -17.613281 L 33.039062 -34.332031 L 33.039062 -34.828125 L 18.707031 -34.828125 L 16.570312 -31.046875 L 12.589844 -24.082031 L 12.589844 -34.828125 L -0.996094 -34.828125 L -0.996094 0 L 12.589844 0 L 12.589844 -10.050781 L 19.304688 0 L 34.679688 0 L 34.679688 -0.449219 Z M 22.390625 -17.613281 "/></g></g></g><g fill="#f6b900" fill-opacity="1"><g transform="translate(52.53843, 38.492763)"><g><path d="M 11.644531 -11.492188 L -1.195312 -11.492188 C -1.195312 -3.582031 4.476562 0.847656 13.832031 0.847656 C 21.34375 0.847656 29.605469 -1.492188 29.605469 -10.5 C 29.605469 -13.980469 27.515625 -16.816406 24.179688 -18.011719 C 26.96875 -18.757812 28.410156 -22.140625 28.410156 -25.226562 C 28.410156 -30.203125 24.480469 -35.523438 13.78125 -35.523438 C 4.675781 -35.523438 -0.847656 -31.496094 -0.894531 -23.632812 L 11.59375 -23.632812 C 11.59375 -24.878906 12.4375 -25.472656 13.285156 -25.472656 C 14.128906 -25.472656 15.027344 -24.828125 15.027344 -23.632812 C 15.027344 -22.789062 14.527344 -21.792969 13.085938 -21.792969 L 10.148438 -21.792969 L 10.148438 -13.484375 L 13.632812 -13.484375 C 14.875 -13.484375 15.671875 -12.4375 15.671875 -11.246094 C 15.671875 -9.902344 14.726562 -9.203125 13.730469 -9.203125 C 12.6875 -9.203125 11.691406 -9.949219 11.644531 -11.492188 Z M 11.644531 -11.492188 "/></g></g></g><g fill="#f6b900" fill-opacity="1"><g transform="translate(93.135483, 38.492763)"><g><path d="M 12.589844 0 L 12.589844 -9.253906 L 13.535156 -9.253906 L 17.960938 0 L 31.644531 0 L 31.644531 -1.09375 L 25.972656 -11.839844 C 29.058594 -13.730469 31.097656 -16.917969 31.097656 -21.992188 C 31.097656 -32.390625 22.6875 -34.777344 14.03125 -34.828125 L -0.996094 -34.828125 L -0.996094 0 Z M 14.328125 -19.703125 L 12.4375 -19.703125 L 12.4375 -24.378906 L 14.328125 -24.378906 C 16.570312 -24.378906 17.613281 -23.632812 17.613281 -21.992188 C 17.613281 -20.300781 16.570312 -19.753906 14.328125 -19.703125 Z M 14.328125 -19.703125 "/></g></g></g><g fill="#f6b900" fill-opacity="1"><g transform="translate(136.269788, 38.492763)"><g><path d="M 6.269531 -23.933594 L 6.269531 0 L 19.851562 0 L 19.851562 -23.933594 L 27.265625 -23.933594 L 27.265625 -34.828125 L -1.144531 -34.828125 L -1.144531 -23.933594 Z M 6.269531 -23.933594 "/></g></g></g><g clip-path="url(#5cd1de9d65)"><g fill="#f6b900" fill-opacity="1"><g transform="translate(7.314627, 79.360814)"><g><path d="M 12.589844 -34.828125 L -0.996094 -34.828125 L -0.996094 0 L 12.589844 0 L 12.589844 -12.140625 L 18.808594 -12.140625 L 18.808594 0 L 32.339844 0 L 32.339844 -34.828125 L 18.808594 -34.828125 L 18.808594 -23.136719 L 12.589844 -23.136719 Z M 12.589844 -34.828125 "/></g></g></g></g><g clip-path="url(#34205a3803)"><g fill="#f6b900" fill-opacity="1"><g transform="translate(51.493678, 79.360814)"><g><path d="M 23.980469 -24.726562 L 23.980469 -34.828125 L -0.847656 -34.828125 L -0.847656 -24.726562 L 4.675781 -24.726562 L 4.675781 -9.949219 L -0.847656 -9.949219 L -0.847656 0 L 23.980469 0 L 23.980469 -9.949219 L 18.460938 -9.949219 L 18.460938 -24.726562 Z M 23.980469 -24.726562 "/></g></g></g></g><g clip-path="url(#7289628341)"><g fill="#f6b900" fill-opacity="1"><g transform="translate(87.165495, 79.360814)"><g><path d="M 22.390625 -17.613281 L 33.039062 -34.332031 L 33.039062 -34.828125 L 18.707031 -34.828125 L 16.570312 -31.046875 L 12.589844 -24.082031 L 12.589844 -34.828125 L -0.996094 -34.828125 L -0.996094 0 L 12.589844 0 L 12.589844 -10.050781 L 19.304688 0 L 34.679688 0 L 34.679688 -0.449219 Z M 22.390625 -17.613281 "/></g></g></g></g><g clip-path="url(#18c05d69c6)"><g fill="#f6b900" fill-opacity="1"><g transform="translate(132.389292, 79.360814)"><g><path d="M 15.273438 -34.828125 L -0.996094 -34.828125 L -0.996094 0 L 15.273438 0 C 25.425781 0 34.878906 -4.078125 34.878906 -17.363281 C 34.878906 -30.648438 25.472656 -34.828125 15.273438 -34.828125 Z M 15.273438 -10.648438 L 12.539062 -10.648438 L 12.539062 -24.179688 L 15.273438 -24.179688 C 19.304688 -24.179688 21.296875 -20.746094 21.296875 -17.316406 C 21.296875 -13.980469 19.253906 -10.648438 15.273438 -10.648438 Z M 15.273438 -10.648438 "/></g></g></g></g><g fill="#f6b900" fill-opacity="1"><g transform="translate(14.246278, 38.492763)"><g><path d="M 22.390625 -17.613281 L 33.039062 -34.332031 L 33.039062 -34.828125 L 18.707031 -34.828125 L 16.570312 -31.046875 L 12.589844 -24.082031 L 12.589844 -34.828125 L -0.996094 -34.828125 L -0.996094 0 L 12.589844 0 L 12.589844 -10.050781 L 19.304688 0 L 34.679688 0 L 34.679688 -0.449219 Z M 22.390625 -17.613281 "/></g></g></g><g fill="#f6b900" fill-opacity="1"><g transform="translate(59.470081, 38.492763)"><g><path d="M 11.644531 -11.492188 L -1.195312 -11.492188 C -1.195312 -3.582031 4.476562 0.847656 13.832031 0.847656 C 21.34375 0.847656 29.605469 -1.492188 29.605469 -10.5 C 29.605469 -13.980469 27.515625 -16.816406 24.179688 -18.011719 C 26.96875 -18.757812 28.410156 -22.140625 28.410156 -25.226562 C 28.410156 -30.203125 24.480469 -35.523438 13.78125 -35.523438 C 4.675781 -35.523438 -0.847656 -31.496094 -0.894531 -23.632812 L 11.59375 -23.632812 C 11.59375 -24.878906 12.4375 -25.472656 13.285156 -25.472656 C 14.128906 -25.472656 15.027344 -24.828125 15.027344 -23.632812 C 15.027344 -22.789062 14.527344 -21.792969 13.085938 -21.792969 L 10.148438 -21.792969 L 10.148438 -13.484375 L 13.632812 -13.484375 C 14.875 -13.484375 15.671875 -12.4375 15.671875 -11.246094 C 15.671875 -9.902344 14.726562 -9.203125 13.730469 -9.203125 C 12.6875 -9.203125 11.691406 -9.949219 11.644531 -11.492188 Z M 11.644531 -11.492188 "/></g></g></g><g fill="#f6b900" fill-opacity="1"><g transform="translate(100.067134, 38.492763)"><g><path d="M 12.589844 0 L 12.589844 -9.253906 L 13.535156 -9.253906 L 17.960938 0 L 31.644531 0 L 31.644531 -1.09375 L 25.972656 -11.839844 C 29.058594 -13.730469 31.097656 -16.917969 31.097656 -21.992188 C 31.097656 -32.390625 22.6875 -34.777344 14.03125 -34.828125 L -0.996094 -34.828125 L -0.996094 0 Z M 14.328125 -19.703125 L 12.4375 -19.703125 L 12.4375 -24.378906 L 14.328125 -24.378906 C 16.570312 -24.378906 17.613281 -23.632812 17.613281 -21.992188 C 17.613281 -20.300781 16.570312 -19.753906 14.328125 -19.703125 Z M 14.328125 -19.703125 "/></g></g></g><g fill="#f6b900" fill-opacity="1"><g transform="translate(143.201439, 38.492763)"><g><path d="M 6.269531 -23.933594 L 6.269531 0 L 19.851562 0 L 19.851562 -23.933594 L 27.265625 -23.933594 L 27.265625 -34.828125 L -1.144531 -34.828125 L -1.144531 -23.933594 Z M 6.269531 -23.933594 "/></g></g></g><g clip-path="url(#34b014a4f6)"><g fill="#f6b900" fill-opacity="1"><g transform="translate(14.246278, 79.360814)"><g><path d="M 12.589844 -34.828125 L -0.996094 -34.828125 L -0.996094 0 L 12.589844 0 L 12.589844 -12.140625 L 18.808594 -12.140625 L 18.808594 0 L 32.339844 0 L 32.339844 -34.828125 L 18.808594 -34.828125 L 18.808594 -23.136719 L 12.589844 -23.136719 Z M 12.589844 -34.828125 "/></g></g></g></g><g clip-path="url(#dbaefee44e)"><g fill="#f6b900" fill-opacity="1"><g transform="translate(58.425329, 79.360814)"><g><path d="M 23.980469 -24.726562 L 23.980469 -34.828125 L -0.847656 -34.828125 L -0.847656 -24.726562 L 4.675781 -24.726562 L 4.675781 -9.949219 L -0.847656 -9.949219 L -0.847656 0 L 23.980469 0 L 23.980469 -9.949219 L 18.460938 -9.949219 L 18.460938 -24.726562 Z M 23.980469 -24.726562 "/></g></g></g></g><g clip-path="url(#f9891e018c)"><g fill="#f6b900" fill-opacity="1"><g transform="translate(94.097146, 79.360814)"><g><path d="M 22.390625 -17.613281 L 33.039062 -34.332031 L 33.039062 -34.828125 L 18.707031 -34.828125 L 16.570312 -31.046875 L 12.589844 -24.082031 L 12.589844 -34.828125 L -0.996094 -34.828125 L -0.996094 0 L 12.589844 0 L 12.589844 -10.050781 L 19.304688 0 L 34.679688 0 L 34.679688 -0.449219 Z M 22.390625 -17.613281 "/></g></g></g></g><g clip-path="url(#a4ee7b2476)"><g fill="#f6b900" fill-opacity="1"><g transform="translate(139.320943, 79.360814)"><g><path d="M 15.273438 -34.828125 L -0.996094 -34.828125 L -0.996094 0 L 15.273438 0 C 25.425781 0 34.878906 -4.078125 34.878906 -17.363281 C 34.878906 -30.648438 25.472656 -34.828125 15.273438 -34.828125 Z M 15.273438 -10.648438 L 12.539062 -10.648438 L 12.539062 -24.179688 L 15.273438 -24.179688 C 19.304688 -24.179688 21.296875 -20.746094 21.296875 -17.316406 C 21.296875 -13.980469 19.253906 -10.648438 15.273438 -10.648438 Z M 15.273438 -10.648438 "/></g></g></g></g><g clip-path="url(#2964a81290)"><path fill="#f6b900" d="M 138.015625 49.609375 L 161.867188 49.609375 L 161.867188 73.460938 L 138.015625 73.460938 Z M 138.015625 49.609375 " fill-opacity="1" fill-rule="nonzero"/></g></svg>