<svg xmlns="http://www.w3.org/2000/svg" xmlns:xlink="http://www.w3.org/1999/xlink" width="500" zoomAndPan="magnify" viewBox="0 0 375 374.999991" height="500" preserveAspectRatio="xMidYMid meet" version="1.0"><defs><g/></defs><g fill="#fa7726" fill-opacity="1"><g transform="translate(106.532122, 272.815036)"><g><path d="M 4.550781 0 L 58.710938 0 L 57.800781 -49.378906 C 57.800781 -59.164062 72.363281 -60.53125 72.363281 -48.699219 L 72.589844 0 L 125.613281 0 L 125.613281 -58.710938 C 125.613281 -83.285156 123.792969 -113.324219 89.203125 -113.324219 C 72.589844 -113.324219 62.351562 -105.359375 55.75 -96.484375 L 54.386719 -145.410156 L 8.648438 -145.410156 Z M 4.550781 0 "/></g></g></g><g fill="#fa7726" fill-opacity="1"><g transform="translate(236.6948, 272.815036)"><g><path d="M 25.941406 2.046875 C 37.773438 2.046875 47.332031 -4.550781 47.332031 -19.34375 C 47.332031 -33.222656 37.773438 -40.734375 25.941406 -40.734375 C 14.109375 -40.734375 4.550781 -35.042969 4.550781 -19.34375 C 4.550781 -3.1875 14.109375 2.046875 25.941406 2.046875 Z M 25.941406 2.046875 "/></g></g></g><path stroke-linecap="butt" transform="matrix(0.75, 0, 0, 0.75, 96.475407, 42.258333)" fill="none" stroke-linejoin="miter" d="M 6.074458 293.999325 L 78.298421 293.999325 L 77.038004 228.145154 C 77.038004 215.108695 96.517172 213.259736 96.517172 229.035779 L 96.814047 293.999325 L 167.480718 293.999325 L 167.480718 215.702445 C 167.480718 182.962859 165.03801 142.88994 118.96509 142.88994 C 96.814047 142.88994 83.110921 153.556607 74.371337 165.33265 L 72.51717 100.145146 L 11.553625 100.145146 Z M 208.142179 296.738909 C 223.92343 296.738909 236.663015 287.926408 236.663015 268.223282 C 236.663015 249.702447 223.92343 239.702446 208.142179 239.702446 C 192.366137 239.702446 179.626553 247.259739 179.626553 268.223282 C 179.626553 289.775366 192.366137 296.738909 208.142179 296.738909 Z M 208.142179 296.738909 " stroke="#d9d9d9" stroke-width="11.377875" stroke-opacity="1" stroke-miterlimit="4"/></svg>